<?xml version="1.0" encoding="UTF-8" standalone="no"?><!DOCTYPE svg PUBLIC "-//W3C//DTD SVG 1.1//EN" "http://www.w3.org/Graphics/SVG/1.1/DTD/svg11.dtd"><svg width="100%" height="100%" viewBox="0 0 5351 750" version="1.1" xmlns="http://www.w3.org/2000/svg" xmlns:xlink="http://www.w3.org/1999/xlink" xml:space="preserve" xmlns:serif="http://www.serif.com/" style="fill-rule:evenodd;clip-rule:evenodd;stroke-linejoin:round;stroke-miterlimit:2;"><g><path d="M1691.814,749.788l0,-719.961l-120.953,0l0,287.984l-241.907,0l0,-287.984l-120.953,0l0,719.961l120.953,0l0,-333.239l241.907,0l0,333.239l120.953,0Z" style="fill:#fff;fill-rule:nonzero;"/><path d="M2244.743,738.474l0,-389.807c0,-120.336 -54.306,-161.477 -193.772,-161.477c-59.242,0 -127.124,18.513 -186.367,51.426l50.603,75.082c49.369,-24.684 86.395,-33.941 127.124,-33.941c62.945,0 83.927,24.684 83.927,77.139l0,52.454c-25.919,-10.285 -59.242,-17.485 -98.737,-17.485c-123.422,0 -211.051,59.654 -211.051,176.905c0,121.365 81.458,181.019 176.493,181.019c58.008,0 99.972,-16.456 133.296,-48.34l0,37.027l118.485,0Zm-118.485,-128.564c-22.216,31.884 -59.242,50.397 -109.845,50.397c-50.603,0 -81.458,-29.827 -81.458,-93.595c0,-58.625 38.261,-85.367 93.801,-85.367c44.432,0 69.116,6.171 97.503,20.57l0,107.994Z" style="fill:#fff;fill-rule:nonzero;"/><path d="M2793.971,738.474l0,-539.971l-118.485,0l0,408.321c-23.45,31.884 -59.242,49.369 -96.269,49.369c-59.242,0 -80.224,-35.998 -80.224,-125.479l0,-332.21l-118.485,0l0,348.667c0,135.764 44.432,202.618 169.088,202.618c55.54,0 99.972,-20.57 125.89,-48.34l0,37.027l118.485,0Z" style="fill:#fff;fill-rule:nonzero;"/><path d="M3059.328,749.788l0,-749.788l-118.485,51.426l0,698.362l118.485,0Z" style="fill:#fff;fill-rule:nonzero;"/><path d="M3624.6,209.817l-120.953,0l-75.287,289.013c-8.64,34.97 -27.153,112.108 -32.09,137.821c-4.937,-25.713 -23.45,-100.795 -33.324,-135.764l-78.99,-291.07l-120.953,0l162.917,539.971l136.998,0l161.683,-539.971Z" style="fill:#fff;fill-rule:nonzero;"/><path d="M3857.867,64.796c0,-33.941 -33.324,-61.711 -72.819,-61.711c-40.729,0 -74.053,27.77 -74.053,61.711c0,32.912 33.324,60.682 74.053,60.682c39.495,0 72.819,-27.77 72.819,-60.682Zm-13.576,684.991l0,-539.971l-118.485,0l0,539.971l118.485,0Z" style="fill:#fff;fill-rule:nonzero;"/><path d="M4354.023,590.368c0,-88.452 -55.54,-123.422 -153.043,-170.734c-87.63,-42.169 -106.143,-58.625 -106.143,-91.538c0,-26.741 19.747,-47.312 64.179,-47.312c40.729,0 88.864,15.428 130.827,40.112l48.135,-83.31c-48.135,-30.855 -111.08,-50.397 -176.493,-50.397c-117.251,0 -185.133,56.568 -185.133,150.163c0,85.367 54.306,120.336 134.53,159.42c90.098,43.198 124.656,62.739 124.656,100.795c0,34.97 -32.09,58.625 -85.161,58.625c-43.198,0 -91.332,-15.428 -150.575,-46.283l-45.666,82.281c56.774,34.97 129.593,57.597 198.709,57.597c125.89,0 201.178,-56.568 201.178,-159.42Z" style="fill:#fff;fill-rule:nonzero;"/><path d="M4909.421,466.946c0,-188.218 -95.035,-279.756 -232.033,-279.756c-144.404,0 -234.501,94.623 -234.501,283.87c0,189.247 95.035,278.728 229.565,278.728c143.169,0 236.97,-93.595 236.97,-282.842Zm-119.719,2.057c0,112.108 -39.495,186.161 -113.548,186.161c-74.053,0 -113.548,-62.739 -113.548,-186.161c0,-123.422 38.261,-187.19 112.314,-187.19c74.053,0 114.782,64.796 114.782,187.19Z" style="fill:#fff;fill-rule:nonzero;"/><path d="M5350.037,217.017c-19.747,-10.285 -48.135,-18.513 -88.864,-18.513c-48.135,0 -88.864,20.57 -114.782,48.34l0,-37.027l-118.485,0l0,539.971l118.485,0l0,-408.321c27.153,-32.912 59.242,-42.169 92.566,-42.169c37.027,0 59.242,5.143 82.693,16.456l28.387,-98.737Z" style="fill:#fff;fill-rule:nonzero;"/></g><g><rect x="0" y="172.927" width="127.2" height="303.778" style="fill:#fff;"/><rect x="720.8" y="183.527" width="127.2" height="323.767" style="fill:#fff;"/><rect x="359.608" y="321.736" width="128.783" height="323.767" style="fill:#fff;"/><path d="M424,574.888l0,174.9l-424,-227.061l0,-174.9l424,227.061Z" style="fill:#fff;"/><path d="M848,347.827l0,174.9l-424,227.061l-0,-174.9l424,-227.061Z" style="fill:#fff;"/><path d="M424,261.788l0,166.562l-424,-231.821l0,-166.562l424,231.821Z" style="fill:#fff;"/><path d="M424,261.788l-0,166.585l424,-231.961l0,-166.585l-424,231.961Z" style="fill:#fff;"/><path d="M424,670.049l186.56,-351.902l-373.12,0l186.56,351.902Z" style="fill:#fff;"/></g></svg>