<svg viewBox="0 0 848 722" xmlns="http://www.w3.org/2000/svg" style="fill-rule:evenodd;clip-rule:evenodd;stroke-linejoin:round;stroke-miterlimit:2;">
  <style>
    g { fill: #000; }
    @media (prefers-color-scheme: dark) {
      g { fill: #fff; }
    }
  </style>
  <g>
    <rect x="-0" y="143.1" width="127.2" height="303.778"/>
    <rect x="720.8" y="153.7" width="127.2" height="323.767"/>
    <rect x="359.608" y="291.909" width="128.783" height="323.767"/>
    <path d="M424,546.287l0,174.9l-424,-228.287l0,-174.9l424,228.287Z"/>
    <path d="M848,318l0,174.9l-424,228.287l0,-174.9l424,-228.287Z"/>
    <path d="M424,230.938l0,166.562l-424,-230.798l0,-166.562l424,230.798Z"/>
    <path d="M424,230.915l-0,166.585l424,-230.915l0,-166.585l-424,230.915Z"/>
    <path d="M424,640.222l186.56,-351.902l-373.12,0l186.56,351.902Z"/>
  </g>
</svg>
